<?xml version="1.0" encoding="utf-8"?>
<!-- Generator: Adobe Illustrator 21.0.2, SVG Export Plug-In . SVG Version: 6.00 Build 0)  -->
<svg version="1.1" id="Layer_1" xmlns="http://www.w3.org/2000/svg" xmlns:xlink="http://www.w3.org/1999/xlink" x="0px" y="0px"
	 viewBox="0 0 35.5 14.5" style="enable-background:new 0 0 35.5 14.5;" xml:space="preserve">
<style type="text/css">
	.st0{fill:#B3B3B3;}
	.st1{fill:none;stroke:#B3B3B3;stroke-width:0.25;stroke-miterlimit:10;}
</style>
<title>Artboard 1</title>
<g>
	<path class="st0" d="M9.2,9.1C9.1,9.2,8.7,9.3,8.3,9.3c-0.9,0-1.7-0.6-1.7-1.7c0-1,0.7-1.7,1.7-1.7c0.4,0,0.6,0.1,0.8,0.2L9.1,6.3
		C9,6.3,8.7,6.2,8.4,6.2c-0.8,0-1.3,0.5-1.3,1.3c0,0.8,0.5,1.3,1.3,1.3c0.2,0,0.6-0.1,0.7-0.2L9.2,9.1z"/>
	<path class="st0" d="M11.8,8c0,0.9-0.6,1.3-1.2,1.3C10,9.3,9.5,8.8,9.5,8s0.6-1.3,1.2-1.3C11.3,6.7,11.8,7.3,11.8,8z M9.9,8
		c0,0.6,0.3,0.9,0.7,0.9c0.4,0,0.7-0.4,0.7-0.9c0-0.4-0.2-0.9-0.7-0.9C10.2,7,9.9,7.5,9.9,8z"/>
	<path class="st0" d="M12.4,7.4c0-0.2,0-0.5,0-0.6h0.4v0.4l0,0c0.2-0.2,0.3-0.4,0.7-0.4c0.3,0,0.6,0.2,0.6,0.5l0,0
		C14.2,7.1,14.3,7,14.4,7c0.2-0.1,0.3-0.2,0.6-0.2c0.3,0,0.8,0.2,0.8,1v1.4h-0.4V7.8c0-0.5-0.2-0.7-0.5-0.7c-0.2,0-0.4,0.2-0.5,0.4
		c0,0.1,0,0.2,0,0.2v1.4H14V7.8c0-0.4-0.2-0.6-0.5-0.6c-0.2,0-0.5,0.2-0.6,0.4c0,0.1,0,0.2,0,0.2v1.4h-0.6V7.4z"/>
	<path class="st0" d="M16.5,9.2V7.1h-0.3V6.8h0.3V6.7c0-0.3,0.1-0.6,0.2-0.8c0.2-0.2,0.4-0.3,0.6-0.3c0.2,0,0.3,0,0.4,0.1L17.7,6
		c-0.1,0-0.2-0.1-0.2-0.1C17,5.9,17,6.3,17,6.6v0.2h0.6v0.3H17v2.1H16.5z"/>
	<path class="st0" d="M18,6.8l0.6,1.4c0.1,0.2,0.1,0.3,0.2,0.5l0,0c0.1-0.2,0.1-0.3,0.2-0.5l0.5-1.4h0.5l-0.6,1.7
		c-0.3,0.8-0.6,1.3-0.8,1.5c-0.2,0.2-0.4,0.2-0.6,0.3l-0.1-0.4c0.1,0,0.2-0.1,0.4-0.2c0.1-0.1,0.2-0.2,0.4-0.5c0-0.1,0-0.1,0-0.1V9
		l-0.9-2.2C17.7,6.8,18,6.8,18,6.8z"/>
	<path class="st0" d="M20.7,9.2l-0.9-3.3h0.5l0.4,1.7c0.1,0.4,0.2,0.8,0.2,1.1l0,0c0.1-0.3,0.2-0.7,0.2-1.1l0.5-1.7h0.5l0.4,1.7
		c0.1,0.4,0.2,0.8,0.2,1.1l0,0c0.1-0.4,0.2-0.7,0.2-1.1l0.5-1.7h0.4l-0.9,3.3h-0.5L22,7.4c0-0.4-0.1-0.7-0.2-1l0,0
		c-0.1,0.3-0.2,0.6-0.2,1.1l-0.5,1.7L20.7,9.2L20.7,9.2z"/>
	<path class="st0" d="M25.4,9.2V8.9l0,0C25.3,9,25,9.2,24.7,9.2c-0.5,0-0.7-0.3-0.7-0.7c0-0.6,0.5-0.9,1.4-0.9v0
		c0-0.2-0.1-0.6-0.6-0.6c-0.2,0-0.5,0.1-0.6,0.2l-0.1-0.3c0.2-0.2,0.5-0.2,0.8-0.2c0.7,0,0.9,0.5,0.9,0.9v0.9c0,0.2,0,0.4,0,0.6
		h-0.4V9.2z M25.4,8c-0.5,0-1,0.1-1,0.6c0,0.3,0.2,0.4,0.4,0.4c0.3,0,0.5-0.2,0.6-0.4c0-0.1,0-0.1,0-0.2L25.4,8L25.4,8z"/>
	<path class="st0" d="M26.6,6.8l0.6,1.4c0.1,0.2,0.1,0.3,0.2,0.5l0,0c0.1-0.2,0.1-0.3,0.2-0.5l0.5-1.4h0.5l-0.6,1.7
		C27.5,9.3,27.2,9.7,27,10c-0.2,0.2-0.4,0.2-0.6,0.3l-0.1-0.4c0.1,0,0.2-0.1,0.4-0.2c0.1-0.1,0.2-0.2,0.4-0.5c0-0.1,0-0.1,0-0.1V9
		l-0.9-2.2C26.3,6.8,26.6,6.8,26.6,6.8z"/>
</g>
<path class="st1" d="M31.5,11.6H3.7c-0.4,0-0.7-0.3-0.7-0.7V4.4C3,4,3.3,3.7,3.7,3.7h27.8c0.4,0,0.7,0.3,0.7,0.7v6.4
	C32.2,11.3,31.9,11.6,31.5,11.6z"/>
</svg>
